<?xml version="1.0" encoding="UTF-8"?>
<svg width="229px" height="69px" viewBox="0 0 229 69" version="1.1" xmlns="http://www.w3.org/2000/svg" xmlns:xlink="http://www.w3.org/1999/xlink">
    <!-- Generator: Sketch 53.2 (72643) - https://sketchapp.com -->
    <title>Group 33</title>
    <desc>Created with Sketch.</desc>
    <defs>
        <polygon id="path-1" points="0.291996604 0.142084746 38.7804155 0.142084746 38.7804155 41.9393941 0.291996604 41.9393941"></polygon>
        <polygon id="path-3" points="0 101 228.893709 101 228.893709 0.142084746 0 0.142084746"></polygon>
    </defs>
    <g id="Page-1" stroke="none" stroke-width="1" fill="none" fill-rule="evenodd">
        <g id="Home-ok" transform="translate(-78.000000, -45.000000)">
            <g id="Header" transform="translate(78.000000, 45.000000)">
                <g id="Logo-ABC-3">
                    <g id="Logo-ABC-2">
                        <g id="Logo-ABC">
                            <g id="Group-33" transform="translate(0.000000, 0.500000)">
                                <path d="M139.202504,26.1429058 L134.5,11.4570431 L129.796641,26.1429058 L139.202504,26.1429058 Z M141.955606,34.7146995 L127.043539,34.7146995 L125.036853,41 L115,41 L128.650086,1 L140.349914,1 L154,41 L143.962292,41 L141.955606,34.7146995 Z" id="Fill-1" fill="#004750"></path>
                                <path d="M178.235366,28.6770669 C178.235366,26.4379483 176.728287,24.8305076 174.408906,24.8305076 L166.641917,24.8305076 L166.641917,32.5236263 L174.408906,32.5236263 C176.728287,32.5236263 178.235366,30.9161856 178.235366,28.6770669 L178.235366,28.6770669 Z M166.641917,9.55810932 L166.641917,16.6768975 L173.25008,16.6768975 C175.337004,16.6768975 176.786185,15.1841517 176.786185,13.1179314 C176.786185,11.0508551 175.394902,9.55810932 173.25008,9.55810932 L166.641917,9.55810932 Z M187.509434,29.3660924 C187.509434,36.4857364 181.654812,41.1360161 174.408906,41.1360161 L157.367849,41.1360161 L157.367849,0.946575424 L173.25008,0.946575424 C180.322291,0.946575424 186.061117,5.48130424 186.061117,12.4289059 C186.061117,15.7584822 184.727732,18.399889 182.525012,20.2949229 C185.538306,22.1891008 187.509434,25.2892873 187.509434,29.3660924 L187.509434,29.3660924 Z" id="Fill-2" fill="#004750"></path>
                                <g id="Group-6" transform="translate(190.113208, 0.000000)">
                                    <mask id="mask-2" fill="white">
                                        <use xlink:href="#path-1"></use>
                                    </mask>
                                    <g id="Clip-5"></g>
                                    <path d="M0.291996604,21.0409534 C0.291996604,9.2136822 9.16077774,0.14165678 21.391106,0.14165678 C28.7528079,0.14165678 35.2443098,3.7596822 38.7804155,9.44307203 L30.7809702,14.0360042 C28.9844004,10.9358178 25.507057,9.09898729 21.391106,9.09898729 C14.2039626,9.09898729 9.56606453,13.8639619 9.56606453,21.0409534 C9.56606453,28.2179449 14.2039626,32.9829195 21.391106,32.9829195 C25.507057,32.9829195 29.0431626,31.146089 30.7809702,28.0450466 L38.7804155,32.6379788 C35.3030721,38.3222246 28.810706,41.9393941 21.391106,41.9393941 C9.16077774,41.9393941 0.291996604,32.8682246 0.291996604,21.0409534" id="Fill-4" fill="#004750" mask="url(#mask-2)"></path>
                                </g>
                                <path d="M133.135761,58.6697873 L133.135761,59.6130246 C133.135761,61.8821008 132.316546,63.7985331 130.677251,65.3606093 C129.037957,66.9235415 126.843878,67.7041517 124.094149,67.7041517 C121.291708,67.7041517 118.973191,66.7874483 117.140327,64.9548975 C115.307463,63.1214907 114.391463,60.8789483 114.391463,58.2247025 C114.391463,55.5713127 115.307463,53.3279144 117.140327,51.4945076 C118.973191,49.6619568 121.291708,48.7452534 124.094149,48.7452534 C125.80344,48.7452534 127.372738,49.1552449 128.799451,49.9760839 C130.227893,50.7960669 131.328821,51.8873805 132.105693,53.2491686 L130.465534,54.19155 C129.883961,53.0745585 129.01981,52.184389 127.87481,51.5201856 C126.728946,50.8576941 125.469014,50.5255924 124.094149,50.5255924 C121.784274,50.5255924 119.899561,51.2676856 118.435689,52.7510161 C116.973546,54.2352025 116.24161,56.06005 116.24161,58.2247025 C116.24161,60.3893551 116.973546,62.2142025 118.435689,63.6975331 C119.899561,65.1817195 121.784274,65.9238127 124.094149,65.9238127 C126.173297,65.9238127 127.83938,65.4042619 129.09067,64.3651602 C130.342825,63.3269144 131.056614,62.0044992 131.2329,60.3979144 L123.882432,60.3979144 L123.882432,58.6697873 L133.135761,58.6697873 Z" id="Fill-7" fill="#004750"></path>
                                <path d="M137.789041,56.4702127 C138.59875,54.8816025 139.991762,54.0872975 141.966346,54.0872975 L141.966346,55.7632127 C140.766905,55.7632127 139.771403,56.1124331 138.978977,56.8100178 C138.185686,57.5084585 137.789041,58.6091873 137.789041,60.1096364 L137.789041,67.3901958 L136.043456,67.3901958 L136.043456,54.2961449 L137.789041,54.2961449 L137.789041,56.4702127 Z" id="Fill-9" fill="#004750"></path>
                                <path d="M146.011091,64.5225661 C147.015235,65.5265746 148.249242,66.0281508 149.71225,66.0281508 C151.175257,66.0281508 152.408401,65.5265746 153.413408,64.5225661 C154.418416,63.5185576 154.920488,62.2928627 154.920488,60.8437695 C154.920488,59.3946763 154.418416,58.1681254 153.413408,57.1641169 C152.408401,56.1601085 151.175257,55.6585322 149.71225,55.6585322 C148.249242,55.6585322 147.015235,56.1601085 146.011091,57.1641169 C145.006084,58.1681254 144.504012,59.3946763 144.504012,60.8437695 C144.504012,62.2928627 145.006084,63.5185576 146.011091,64.5225661 M154.642231,65.7268627 C153.29502,67.0458542 151.65054,67.7040661 149.71225,67.7040661 C147.773095,67.7040661 146.130344,67.0458542 144.781405,65.7268627 C143.433329,64.4095831 142.758427,62.7807441 142.758427,60.8437695 C142.758427,58.905939 143.433329,57.2779559 144.781405,55.9598203 C146.130344,54.6416847 147.773095,53.9826169 149.71225,53.9826169 C151.65054,53.9826169 153.29502,54.6416847 154.642231,55.9598203 C155.991171,57.2779559 156.665208,58.905939 156.665208,60.8437695 C156.665208,62.7807441 155.991171,64.4095831 154.642231,65.7268627" id="Fill-11" fill="#004750"></path>
                                <path d="M165.733868,67.7043229 C163.741135,67.7043229 162.084558,67.0452551 160.763271,65.7271195 C159.44112,64.4089839 158.780045,62.7810008 158.780045,60.8431703 C158.780045,58.9053398 159.44112,57.2773568 160.763271,55.9592212 C162.084558,54.6410856 163.741135,53.9820178 165.733868,53.9820178 C167.037871,53.9820178 168.20966,54.2927212 169.249234,54.9124161 C170.289671,55.532111 171.047532,56.3649331 171.523679,57.4125941 L170.096102,58.2248737 C169.743528,57.439128 169.174052,56.8151534 168.390268,56.3520941 C167.606483,55.8898907 166.720728,55.6579331 165.733868,55.6579331 C164.27086,55.6579331 163.036852,56.1603653 162.032709,57.1643737 C161.027702,58.1683822 160.52563,59.3949331 160.52563,60.8431703 C160.52563,62.2922636 161.027702,63.5188144 162.032709,64.5228229 C163.036852,65.5268314 164.27086,66.0284076 165.733868,66.0284076 C166.720728,66.0284076 167.601298,65.7973059 168.378169,65.3342466 C169.152449,64.8720432 169.760811,64.2472127 170.201528,63.4614669 L171.655894,64.2994246 C171.109751,65.3479415 170.307818,66.1764839 169.249234,66.7876195 C168.192377,67.3987551 167.019724,67.7043229 165.733868,67.7043229" id="Fill-13" fill="#004750"></path>
                                <path d="M180.142548,55.6581898 C178.767683,55.6581898 177.617498,56.0639017 176.692857,56.8761814 C175.767351,57.6876051 175.216023,58.7395458 175.0406,60.0311475 L184.901427,60.0311475 C184.72514,58.6530966 184.187638,57.5789017 183.288921,56.8102746 C182.390204,56.0425034 181.341125,55.6581898 180.142548,55.6581898 M180.142548,53.9822746 C182.098985,53.9822746 183.681246,54.6678763 184.888465,56.0382237 C186.095683,57.4085712 186.699725,59.0279949 186.699725,60.895639 C186.699725,61.0882237 186.681578,61.3586983 186.646148,61.7070627 L175.0406,61.7070627 C175.216023,63.0346136 175.784634,64.0865542 176.744706,64.8628847 C177.705642,65.6400712 178.891257,66.0286644 180.301551,66.0286644 C181.305695,66.0286644 182.174166,65.8232407 182.905238,65.4123932 C183.63631,65.0024017 184.187638,64.4665881 184.557495,63.8023847 L186.091363,64.6925542 C185.509789,65.6186729 184.716498,66.3513508 183.711491,66.8923 C182.707348,67.4332492 181.561483,67.7045797 180.274763,67.7045797 C178.194751,67.7045797 176.502744,67.0583508 175.197876,65.7667492 C173.894736,64.4742915 173.242302,62.8334695 173.242302,60.8434271 C173.242302,58.888478 173.885231,57.2553593 175.171951,55.946639 C176.458672,54.6370627 178.115249,53.9822746 180.142548,53.9822746" id="Fill-15" fill="#004750"></path>
                                <path d="M191.220358,56.4702127 C192.030067,54.8816025 193.423078,54.0872975 195.397663,54.0872975 L195.397663,55.7632127 C194.198222,55.7632127 193.20272,56.1124331 192.410294,56.8100178 C191.617003,57.5084585 191.220358,58.6091873 191.220358,60.1096364 L191.220358,67.3901958 L189.474773,67.3901958 L189.474773,54.2961449 L191.220358,54.2961449 L191.220358,56.4702127 Z" id="Fill-17" fill="#004750"></path>
                                <mask id="mask-4" fill="white">
                                    <use xlink:href="#path-3"></use>
                                </mask>
                                <g id="Clip-20"></g>
                                <path d="M197.776498,67.3901102 L199.522083,67.3901102 L199.522083,54.2969153 L197.776498,54.2969153 L197.776498,67.3901102 Z M199.548008,51.1539322 C199.30086,51.3987288 199.001,51.5202712 198.649291,51.5202712 C198.296717,51.5202712 197.996857,51.3987288 197.750574,51.1539322 C197.503426,50.9099915 197.379853,50.6129831 197.379853,50.2637627 C197.379853,49.9145424 197.503426,49.6183898 197.750574,49.3735932 C197.996857,49.1287966 198.296717,49.0063983 198.649291,49.0063983 C199.001,49.0063983 199.30086,49.1287966 199.548008,49.3735932 C199.794291,49.6183898 199.918728,49.9145424 199.918728,50.2637627 C199.918728,50.6129831 199.794291,50.9099915 199.548008,51.1539322 L199.548008,51.1539322 Z" id="Fill-19" fill="#004750" mask="url(#mask-4)"></path>
                                <path d="M209.330455,55.6581898 C207.955591,55.6581898 206.805406,56.0639017 205.880765,56.8761814 C204.955259,57.6876051 204.403931,58.7395458 204.228508,60.0311475 L214.089335,60.0311475 C213.913048,58.6530966 213.375546,57.5789017 212.476829,56.8102746 C211.578112,56.0425034 210.529033,55.6581898 209.330455,55.6581898 M209.330455,53.9822746 C211.286893,53.9822746 212.869154,54.6678763 214.076372,56.0382237 C215.283591,57.4085712 215.887633,59.0279949 215.887633,60.895639 C215.887633,61.0882237 215.869486,61.3586983 215.834055,61.7070627 L204.228508,61.7070627 C204.403931,63.0346136 204.972542,64.0865542 205.932614,64.8628847 C206.89355,65.6400712 208.079165,66.0286644 209.489459,66.0286644 C210.493603,66.0286644 211.362074,65.8232407 212.093146,65.4123932 C212.824218,65.0024017 213.375546,64.4665881 213.745403,63.8023847 L215.279271,64.6925542 C214.697697,65.6186729 213.904406,66.3513508 212.899399,66.8923 C211.895255,67.4332492 210.749391,67.7045797 209.462671,67.7045797 C207.382659,67.7045797 205.690652,67.0583508 204.385784,65.7667492 C203.082644,64.4742915 202.43021,62.8334695 202.43021,60.8434271 C202.43021,58.888478 203.073138,57.2553593 204.359859,55.946639 C205.64658,54.6370627 207.303157,53.9822746 209.330455,53.9822746" id="Fill-21" fill="#004750" mask="url(#mask-4)"></path>
                                <path d="M219.509549,57.726978 C219.509549,58.3209949 219.773979,58.7926136 220.302839,59.140978 C220.8317,59.4910542 221.474628,59.7606729 222.232488,59.9532576 C222.990349,60.1449864 223.748209,60.3589695 224.506069,60.5943508 C225.26393,60.8297322 225.907722,61.2226051 226.436583,61.7729695 C226.965443,62.3233339 227.229873,63.0431729 227.229873,63.9333424 C227.229873,65.0511898 226.783971,65.958478 225.89476,66.6569186 C225.00382,67.3553593 223.853635,67.7045797 222.444205,67.7045797 C221.175632,67.7045797 220.095443,67.4246898 219.205368,66.866622 C218.315292,66.3076983 217.693968,65.5835797 217.341394,64.6925542 L218.822549,63.8289186 C219.068832,64.5093847 219.513869,65.0460542 220.157662,65.4389271 C220.80059,65.8318 221.562771,66.0286644 222.444205,66.0286644 C223.308356,66.0286644 224.029922,65.8583339 224.61236,65.5176729 C225.193934,65.1770119 225.484288,64.6489017 225.484288,63.9333424 C225.484288,63.3401814 225.219858,62.8685627 224.691862,62.5193424 C224.163002,62.170122 223.519209,61.8996475 222.762213,61.7070627 C222.003488,61.5153339 221.245628,61.3013508 220.487768,61.0659695 C219.729907,60.8297322 219.086979,60.4377153 218.557254,59.8873508 C218.029258,59.3378424 217.763964,58.6180034 217.763964,57.726978 C217.763964,56.6621983 218.192583,55.7720288 219.047228,55.0556136 C219.901873,54.3400542 220.981198,53.9822746 222.286066,53.9822746 C223.360205,53.9822746 224.303858,54.2227915 225.114432,54.7021136 C225.925005,55.1831475 226.524726,55.8328 226.911866,56.653639 L225.458364,57.4915966 C224.946786,56.2693254 223.889066,55.6581898 222.286066,55.6581898 C221.527341,55.6581898 220.874907,55.8370797 220.328764,56.1948593 C219.78262,56.552639 219.509549,57.0636305 219.509549,57.726978" id="Fill-22" fill="#004750" mask="url(#mask-4)"></path>
                                <polygon id="Fill-23" fill="#A4BB51" mask="url(#mask-4)" points="106.996923 7.2290322 51.7863192 7.2290322 40.7960475 45.5071763 87.1862626 48.9891085 100.739606 38.5107864"></polygon>
                                <path d="M84.3542672,51.6715144 L46.5830936,51.6715144 C42.1560483,51.6715144 38.4229162,49.9408195 36.0706974,46.7969805 C33.6398408,43.5478619 33.0366634,39.1081415 34.4158483,34.6144975 L42.8162596,7.22894661 L23.7271653,7.22894661 C22.0092332,7.22894661 20.6153577,5.8491839 20.6153577,4.14673475 C20.6153577,2.44514153 22.0092332,1.06452288 23.7271653,1.06452288 L47.0143049,1.06452288 C47.999437,1.06452288 48.9258068,1.5275822 49.5134294,2.31247203 C50.1010521,3.09650593 50.2756106,4.1082178 49.9921691,5.04203983 L40.3672558,36.4068195 C39.5575464,39.05165 39.8055577,41.437989 41.0689464,43.1267432 C42.217403,44.6622856 44.1764332,45.5070907 46.5830936,45.5070907 L84.3542672,45.5070907 C90.261603,45.5070907 96.7833502,40.5195737 98.5954747,34.6144975 L106.99675,7.22894661 L63.4850219,7.22894661 C61.7662257,7.22894661 60.3723502,5.8491839 60.3723502,4.14673475 C60.3723502,2.44514153 61.7662257,1.06452288 63.4850219,1.06452288 L111.193931,1.06452288 C112.179063,1.06452288 113.106297,1.5275822 113.693056,2.3116161 C114.27895,3.09650593 114.456965,4.1082178 114.171795,5.04203983 L104.548611,36.4068195 C101.92332,44.9661415 93.0519464,51.6715144 84.3542672,51.6715144" id="Fill-24" fill="#004750" mask="url(#mask-4)"></path>
                                <path d="M106.764812,21.6682661 L72.1184083,21.6682661 C70.3978838,21.6682661 69.0074649,20.2885034 69.0074649,18.5860542 C69.0074649,16.884461 70.3978838,15.5038424 72.1184083,15.5038424 L106.764812,15.5038424 C108.482744,15.5038424 109.87662,16.884461 109.87662,18.5860542 C109.87662,20.2885034 108.482744,21.6682661 106.764812,21.6682661" id="Fill-25" fill="#004750" mask="url(#mask-4)"></path>
                                <path d="M16.6467445,21.6682661 L3.11068415,21.6682661 C1.39361623,21.6682661 -0.000259245283,20.2885034 -0.000259245283,18.5860542 C-0.000259245283,16.884461 1.39361623,15.5038424 3.11068415,15.5038424 L16.6467445,15.5038424 C18.3646766,15.5038424 19.7576879,16.884461 19.7576879,18.5860542 C19.7576879,20.2885034 18.3646766,21.6682661 16.6467445,21.6682661" id="Fill-26" fill="#004750" mask="url(#mask-4)"></path>
                                <path d="M32.3601196,21.6682661 L24.5974517,21.6682661 C22.8803838,21.6682661 21.4856442,20.2885034 21.4856442,18.5860542 C21.4856442,16.884461 22.8803838,15.5038424 24.5974517,15.5038424 L32.3601196,15.5038424 C34.0789158,15.5038424 35.4727913,16.884461 35.4727913,18.5860542 C35.4727913,20.2885034 34.0789158,21.6682661 32.3601196,21.6682661" id="Fill-27" fill="#004750" mask="url(#mask-4)"></path>
                                <path d="M76.8090196,37.231339 L51.0996649,37.231339 C49.3817328,37.231339 47.9887215,35.8524322 47.9887215,34.1499831 C47.9887215,32.4475339 49.3817328,31.0686271 51.0996649,31.0686271 L76.8090196,31.0686271 C78.5269517,31.0686271 79.9208272,32.4475339 79.9208272,34.1499831 C79.9208272,35.8524322 78.5269517,37.231339 76.8090196,37.231339" id="Fill-28" fill="#004750" mask="url(#mask-4)"></path>
                                <path d="M19.8248325,37.231339 L6.96972302,37.231339 C5.25006264,37.231339 3.85791547,35.8524322 3.85791547,34.1499831 C3.85791547,32.4475339 5.25006264,31.0686271 6.96972302,31.0686271 L19.8248325,31.0686271 C21.5419004,31.0686271 22.9357758,32.4475339 22.9357758,34.1499831 C22.9357758,35.8524322 21.5419004,37.231339 19.8248325,37.231339" id="Fill-29" fill="#004750" mask="url(#mask-4)"></path>
                                <path d="M94.5579023,37.231339 L84.3738834,37.231339 C82.6559513,37.231339 81.2620758,35.8524322 81.2620758,34.1499831 C81.2620758,32.4475339 82.6559513,31.0686271 84.3738834,31.0686271 L94.5579023,31.0686271 C96.2758343,31.0686271 97.6697098,32.4475339 97.6697098,34.1499831 C97.6697098,35.8524322 96.2758343,37.231339 94.5579023,37.231339" id="Fill-30" fill="#004750" mask="url(#mask-4)"></path>
                                <path d="M50.4895743,51.6715144 C47.3924574,51.6715144 43.8347479,54.4087856 42.8764045,57.5278025 C42.4979064,58.7689042 42.586914,59.8935992 43.1244158,60.6117263 C43.7345064,61.4257178 44.7818574,61.5969042 45.5544083,61.5969042 C48.6515253,61.5969042 52.2083706,58.8587771 53.166714,55.7371924 C53.5469404,54.4969466 53.4570687,53.3748195 52.9204309,52.6558364 C52.3094762,51.8427008 51.2629894,51.6715144 50.4895743,51.6715144 M45.5544083,67.7596161 C42.4875366,67.7596161 39.7801517,66.4919805 38.1253026,64.2819636 C36.4021857,61.9795059 35.963197,58.8656246 36.9241328,55.7371924 C38.6844083,50.0007347 44.6410008,45.5070907 50.4895743,45.5070907 C53.5581743,45.5070907 56.2638309,46.7747263 57.91868,48.9855992 C59.641797,51.2880568 60.0816498,54.4027941 59.1198498,57.5278025 C57.3613026,63.265972 51.4012536,67.7596161 45.5544083,67.7596161" id="Fill-31" fill="#004750" mask="url(#mask-4)"></path>
                                <path d="M78.0571128,51.6715144 C74.9574034,51.6715144 71.4022864,54.4087856 70.4430789,57.5278025 C70.0619883,58.7689042 70.1535883,59.8935992 70.6919543,60.6117263 C71.3003166,61.4257178 72.3476675,61.5969042 73.1202185,61.5969042 C76.2173355,61.5969042 79.7750449,58.8587771 80.7342525,55.7371924 C81.1136147,54.4969466 81.0228789,53.3748195 80.4862411,52.6558364 C79.8761506,51.8427008 78.8279355,51.6715144 78.0571128,51.6715144 M73.1202185,67.7596161 C70.0533468,67.7596161 67.3459619,66.4919805 65.6902487,64.2819636 C63.9679958,61.9795059 63.5298713,58.8656246 64.489943,55.7371924 C66.2493543,50.0007347 72.2085392,45.5070907 78.0571128,45.5070907 C81.1239845,45.5070907 83.8313694,46.7747263 85.4844902,48.9855992 C87.206743,51.2880568 87.64746,54.4027941 86.6865242,57.5278025 C84.9271128,63.265972 78.9687921,67.7596161 73.1202185,67.7596161" id="Fill-32" fill="#004750" mask="url(#mask-4)"></path>
                            </g>
                        </g>
                    </g>
                </g>
            </g>
        </g>
    </g>
</svg>